// Hammond Organ Vibrato On
// © StaffPad Ltd
// Created with StaffPad Editor

<global>
volume=3.0
ampeg_decay=0
loop_mode=loop_continuous
pan=0
tune=0
amp_veltrack=0.0
xfout_hicc1=127
ampeg_attack=0
ampeg_sustain=100
ampeg_release=0.05
xfout_locc1=127
xfin_locc1=0
xf_cccurve=gain
xfin_hicc1=127


<group>
group_label=Vibrato_On


<region>
sample=Hammond_Organ_Vib_On_A2.opus
hikey=a#3
hivel=127
lokey=a3
loop_end=100347
loop_start=51490
lovel=0
pitch_keycenter=a3

<region>
sample=Hammond_Organ_Vib_On_A3.opus
hikey=a#4
hivel=127
lokey=a4
loop_end=130960
loop_start=67896
lovel=0
pitch_keycenter=a4

<region>
sample=Hammond_Organ_Vib_On_A4.opus
hikey=a#5
hivel=127
lokey=a5
loop_end=120772
loop_start=58002
lovel=0
pitch_keycenter=a5

<region>
sample=Hammond_Organ_Vib_On_A5.opus
hikey=a#6
hivel=127
lokey=a6
loop_end=140240
loop_start=70441
lovel=0
pitch_keycenter=a6

<region>
sample=Hammond_Organ_Vib_On_B2.opus
hivel=127
key=b3
loop_end=121581
loop_start=59010
lovel=0

<region>
sample=Hammond_Organ_Vib_On_B3.opus
hivel=127
key=b4
loop_end=134470
loop_start=64672
lovel=0

<region>
sample=Hammond_Organ_Vib_On_B4.opus
hivel=127
key=b5
loop_end=118694
loop_start=62759
lovel=0

<region>
sample=Hammond_Organ_Vib_On_B5.opus
hivel=127
key=b6
loop_end=147965
loop_start=78170
lovel=0

<region>
sample=Hammond_Organ_Vib_On_C3.opus
hikey=c#4
hivel=127
lokey=c4
loop_end=120181
loop_start=57485
lovel=0
pitch_keycenter=c4

<region>
sample=Hammond_Organ_Vib_On_C4.opus
hikey=c#5
hivel=127
lokey=c5
loop_end=139659
loop_start=69791
lovel=0
pitch_keycenter=c5

<region>
sample=Hammond_Organ_Vib_On_C5.opus
hikey=c#6
hivel=127
lokey=c6
loop_end=127994
loop_start=65687
lovel=0
pitch_keycenter=c6

<region>
sample=Hammond_Organ_Vib_On_C6.opus
hikey=e7
hivel=127
lokey=c7
loop_end=116470
loop_start=60655
lovel=0
pitch_keycenter=c7

<region>
sample=Hammond_Organ_Vib_On_D3.opus
hikey=d#4
hivel=127
lokey=d4
loop_end=119965
loop_start=57546
lovel=0
pitch_keycenter=d4

<region>
sample=Hammond_Organ_Vib_On_D4.opus
hikey=d#5
hivel=127
lokey=d5
loop_end=127254
loop_start=64651
lovel=0
pitch_keycenter=d5

<region>
sample=Hammond_Organ_Vib_On_D5.opus
hikey=d#6
hivel=127
lokey=d6
loop_end=128044
loop_start=65162
lovel=0
pitch_keycenter=d6

<region>
sample=Hammond_Organ_Vib_On_E3.opus
hivel=127
key=e4
loop_end=118077
loop_start=61921
lovel=0

<region>
sample=Hammond_Organ_Vib_On_E4.opus
hivel=127
key=e5
loop_end=128094
loop_start=65212
lovel=0

<region>
sample=Hammond_Organ_Vib_On_E5.opus
hivel=127
key=e6
loop_end=135340
loop_start=65586
lovel=0

<region>
sample=Hammond_Organ_Vib_On_F2.opus
hikey=f#3
hivel=127
lokey=c2
loop_end=113145
loop_start=57089
lovel=0
pitch_keycenter=f3

<region>
sample=Hammond_Organ_Vib_On_F3.opus
hikey=f#4
hivel=127
lokey=f4
loop_end=127291
loop_start=64093
lovel=0
pitch_keycenter=f4

<region>
sample=Hammond_Organ_Vib_On_F4.opus
hikey=f#5
hivel=127
lokey=f5
loop_end=122131
loop_start=59185
lovel=0
pitch_keycenter=f5

<region>
sample=Hammond_Organ_Vib_On_F5.opus
hikey=f#6
hivel=127
lokey=f6
loop_end=140048
loop_start=70346
lovel=0
pitch_keycenter=f6

<region>
sample=Hammond_Organ_Vib_On_G2.opus
hikey=g#3
hivel=127
lokey=g3
loop_end=107469
loop_start=51646
lovel=0
pitch_keycenter=g3

<region>
sample=Hammond_Organ_Vib_On_G3.opus
hikey=g#4
hivel=127
lokey=g4
loop_end=126940
loop_start=64234
lovel=0
pitch_keycenter=g4

<region>
sample=Hammond_Organ_Vib_On_G4.opus
hikey=g#5
hivel=127
lokey=g5
loop_end=122972
loop_start=60134
lovel=0
pitch_keycenter=g5

<region>
sample=Hammond_Organ_Vib_On_G5.opus
hikey=g#6
hivel=127
lokey=g6
loop_end=139490
loop_start=69845
lovel=0
pitch_keycenter=g6

